{
  "accessors": [
    {
      "bufferView": 2,
      "componentType": 5126,
      "count": 1051,
      "max": [
        7.442817687988281,
        15.3897705078125,
        5.9948883056640625
      ],
      "min": [
        -7.5880279541015625,
        -0.012569546699523926,
        -3.0412559509277344
      ],
      "type": "VEC3"
    },
    {
      "bufferView": 2,
      "byteOffset": 12612,
      "componentType": 5126,
      "count": 1051,
      "max": [
        0.9969393610954285,
        0.9999750852584839,
        0.9999409914016724
      ],
      "min": [
        -0.9996867775917053,
        -0.9902231097221375,
        -0.9985765814781189
      ],
      "type": "VEC3"
    },
    {
      "bufferView": 1,
      "componentType": 5126,
      "count": 1051,
      "max": [
        0.9919207692146301,
        0.9919207692146301
      ],
      "min": [
        0.008079291321337223,
        0.008079306222498417
      ],
      "type": "VEC2"
    },
    {
      "bufferView": 0,
      "componentType": 5125,
      "count": 5733,
      "type": "SCALAR"
    }
  ],
  "asset": {
    "extras": {
      "author": "Damco (https://sketchfab.com/jondameron5)",
      "license": "CC-BY-4.0 (http://creativecommons.org/licenses/by/4.0/)",
      "source": "https://sketchfab.com/3d-models/stack-of-christmas-gifts-6b60665acb9b4399b418be035389de9a",
      "title": "Stack of Christmas Gifts"
    },
    "generator": "Sketchfab-12.65.0",
    "version": "2.0"
  },
  "bufferViews": [
    {
      "buffer": 0,
      "byteLength": 22932,
      "name": "floatBufferViews",
      "target": 34963
    },
    {
      "buffer": 0,
      "byteLength": 8408,
      "byteOffset": 22932,
      "byteStride": 8,
      "name": "floatBufferViews",
      "target": 34962
    },
    {
      "buffer": 0,
      "byteLength": 25224,
      "byteOffset": 31340,
      "byteStride": 12,
      "name": "floatBufferViews",
      "target": 34962
    }
  ],
  "buffers": [
    {
      "byteLength": 56564,
      "uri": "scene.bin"
    }
  ],
  "images": [
    {
      "uri": "textures/giftMat_baseColor.png"
    }
  ],
  "materials": [
    {
      "doubleSided": true,
      "name": "giftMat",
      "pbrMetallicRoughness": {
        "baseColorTexture": {
          "index": 0
        },
        "metallicFactor": 0.0,
        "roughnessFactor": 0.6
      }
    }
  ],
  "meshes": [
    {
      "name": "giftGeo_giftMat_0",
      "primitives": [
        {
          "attributes": {
            "NORMAL": 1,
            "POSITION": 0,
            "TEXCOORD_0": 2
          },
          "indices": 3,
          "material": 0,
          "mode": 4
        }
      ]
    }
  ],
  "nodes": [
    {
      "children": [
        1
      ],
      "matrix": [
        1.0,
        0.0,
        0.0,
        0.0,
        0.0,
        2.220446049250313e-16,
        -1.0,
        0.0,
        0.0,
        1.0,
        2.220446049250313e-16,
        0.0,
        0.0,
        0.0,
        0.0,
        1.0
      ],
      "name": "Sketchfab_model"
    },
    {
      "children": [
        2
      ],
      "matrix": [
        1.0,
        0.0,
        0.0,
        0.0,
        0.0,
        0.0,
        1.0,
        0.0,
        0.0,
        -1.0,
        0.0,
        0.0,
        0.0,
        0.0,
        0.0,
        1.0
      ],
      "name": "347a6dc21a9e48febcdddaa9accc6a7a.fbx"
    },
    {
      "children": [
        3
      ],
      "name": "RootNode"
    },
    {
      "children": [
        4
      ],
      "name": "giftGeo"
    },
    {
      "mesh": 0,
      "name": "giftGeo_giftMat_0"
    }
  ],
  "samplers": [
    {
      "magFilter": 9729,
      "minFilter": 9987,
      "wrapS": 10497,
      "wrapT": 10497
    }
  ],
  "scene": 0,
  "scenes": [
    {
      "name": "Sketchfab_Scene",
      "nodes": [
        0
      ]
    }
  ],
  "textures": [
    {
      "sampler": 0,
      "source": 0
    }
  ]
}
