{
  "accessors": [
    {
      "bufferView": 2,
      "componentType": 5126,
      "count": 4712,
      "max": [
        0.9553210139274597,
        0.968529462814331,
        0.897524356842041
      ],
      "min": [
        -0.9150766730308533,
        -0.9598612785339355,
        -0.8449393510818481
      ],
      "type": "VEC3"
    },
    {
      "bufferView": 2,
      "byteOffset": 56544,
      "componentType": 5126,
      "count": 4712,
      "max": [
        0.9994971752166748,
        0.9998230934143066,
        1.0
      ],
      "min": [
        -0.9994971752166748,
        -0.9998230934143066,
        -1.0
      ],
      "type": "VEC3"
    },
    {
      "bufferView": 1,
      "componentType": 5126,
      "count": 4712,
      "max": [
        0.8698683977127075,
        0.9888105988502502
      ],
      "min": [
        0.016732754185795784,
        0.021186549216508865
      ],
      "type": "VEC2"
    },
    {
      "bufferView": 0,
      "componentType": 5125,
      "count": 19752,
      "type": "SCALAR"
    },
    {
      "bufferView": 2,
      "byteOffset": 113088,
      "componentType": 5126,
      "count": 4391,
      "max": [
        0.9753106236457825,
        0.9885197281837463,
        0.9171831607818604
      ],
      "min": [
        -0.935066282749176,
        -0.9798515439033508,
        -0.8649393320083618
      ],
      "type": "VEC3"
    },
    {
      "bufferView": 2,
      "byteOffset": 165780,
      "componentType": 5126,
      "count": 4391,
      "max": [
        0.999500036239624,
        0.9995220899581909,
        1.0
      ],
      "min": [
        -0.999500036239624,
        -0.9995220899581909,
        -1.0
      ],
      "type": "VEC3"
    },
    {
      "bufferView": 1,
      "byteOffset": 37696,
      "componentType": 5126,
      "count": 4391,
      "max": [
        0.8698683977127075,
        0.9888105988502502
      ],
      "min": [
        0.016732754185795784,
        0.021186549216508865
      ],
      "type": "VEC2"
    },
    {
      "bufferView": 0,
      "byteOffset": 79008,
      "componentType": 5125,
      "count": 17832,
      "type": "SCALAR"
    },
    {
      "bufferView": 2,
      "byteOffset": 218472,
      "componentType": 5126,
      "count": 682,
      "max": [
        0.8809977769851685,
        0.526660680770874,
        0.37614816427230835
      ],
      "min": [
        0.7414073944091797,
        -0.517991840839386,
        0.2599242925643921
      ],
      "type": "VEC3"
    },
    {
      "bufferView": 2,
      "byteOffset": 226656,
      "componentType": 5126,
      "count": 682,
      "max": [
        0.9989750981330872,
        0.9963971376419067,
        0.9985716938972473
      ],
      "min": [
        -0.9981591701507568,
        -0.9963971376419067,
        -0.9953339099884033
      ],
      "type": "VEC3"
    },
    {
      "bufferView": 1,
      "byteOffset": 72824,
      "componentType": 5126,
      "count": 682,
      "max": [
        0.8750001192092896,
        1.0000001192092896
      ],
      "min": [
        0.1250000149011612,
        0.0
      ],
      "type": "VEC2"
    },
    {
      "bufferView": 0,
      "byteOffset": 150336,
      "componentType": 5125,
      "count": 3456,
      "type": "SCALAR"
    },
    {
      "bufferView": 2,
      "byteOffset": 234840,
      "componentType": 5126,
      "count": 539,
      "max": [
        0.06319345533847809,
        0.08858291804790497,
        1.7253642082214355
      ],
      "min": [
        -0.24631690979003906,
        -0.7672059535980225,
        0.825919508934021
      ],
      "type": "VEC3"
    },
    {
      "bufferView": 2,
      "byteOffset": 241308,
      "componentType": 5126,
      "count": 539,
      "max": [
        0.9979420900344849,
        0.9980021119117737,
        0.9925644993782043
      ],
      "min": [
        -0.9979420304298401,
        -0.9980025291442871,
        -0.9999405145645142
      ],
      "type": "VEC3"
    },
    {
      "bufferView": 1,
      "byteOffset": 78280,
      "componentType": 5126,
      "count": 539,
      "max": [
        1.0,
        0.9791666865348816
      ],
      "min": [
        0.0,
        0.0
      ],
      "type": "VEC2"
    },
    {
      "bufferView": 0,
      "byteOffset": 164160,
      "componentType": 5125,
      "count": 1605,
      "type": "SCALAR"
    },
    {
      "bufferView": 2,
      "byteOffset": 247776,
      "componentType": 5126,
      "count": 339,
      "max": [
        0.06319345533847809,
        0.08858291804790497,
        1.7452152967453003
      ],
      "min": [
        -0.26553991436958313,
        -0.7859119772911072,
        0.825919508934021
      ],
      "type": "VEC3"
    },
    {
      "bufferView": 2,
      "byteOffset": 251844,
      "componentType": 5126,
      "count": 339,
      "max": [
        0.9901937246322632,
        0.9858019948005676,
        0.9999399781227112
      ],
      "min": [
        -0.9947838187217712,
        -0.9845174551010132,
        -0.9927089214324951
      ],
      "type": "VEC3"
    },
    {
      "bufferView": 1,
      "byteOffset": 82592,
      "componentType": 5126,
      "count": 339,
      "max": [
        1.0,
        0.9791666865348816
      ],
      "min": [
        0.0,
        0.0
      ],
      "type": "VEC2"
    },
    {
      "bufferView": 0,
      "byteOffset": 170580,
      "componentType": 5125,
      "count": 1251,
      "type": "SCALAR"
    },
    {
      "bufferView": 2,
      "byteOffset": 255912,
      "componentType": 5126,
      "count": 935,
      "max": [
        0.30167680978775024,
        0.3232670724391937,
        1.002389669418335
      ],
      "min": [
        -0.30167683959007263,
        -0.2800866365432739,
        0.6668580770492554
      ],
      "type": "VEC3"
    },
    {
      "bufferView": 2,
      "byteOffset": 267132,
      "componentType": 5126,
      "count": 935,
      "max": [
        1.0,
        1.0,
        0.9996910095214844
      ],
      "min": [
        -1.0,
        -1.0,
        -0.997485876083374
      ],
      "type": "VEC3"
    },
    {
      "bufferView": 1,
      "byteOffset": 85304,
      "componentType": 5126,
      "count": 935,
      "max": [
        0.9838954210281372,
        1.0000001192092896
      ],
      "min": [
        0.016104701906442642,
        0.016104701906442642
      ],
      "type": "VEC2"
    },
    {
      "bufferView": 0,
      "byteOffset": 175584,
      "componentType": 5125,
      "count": 4224,
      "type": "SCALAR"
    },
    {
      "bufferView": 2,
      "byteOffset": 278352,
      "componentType": 5126,
      "count": 864,
      "max": [
        0.32167255878448486,
        0.34326279163360596,
        1.0221681594848633
      ],
      "min": [
        -0.32167255878448486,
        -0.30008238554000854,
        0.6668580770492554
      ],
      "type": "VEC3"
    },
    {
      "bufferView": 2,
      "byteOffset": 288720,
      "componentType": 5126,
      "count": 864,
      "max": [
        1.0,
        1.0,
        0.9998079538345337
      ],
      "min": [
        -1.0,
        -1.0,
        -0.999769926071167
      ],
      "type": "VEC3"
    },
    {
      "bufferView": 1,
      "byteOffset": 92784,
      "componentType": 5126,
      "count": 864,
      "max": [
        0.9838954210281372,
        1.0000001192092896
      ],
      "min": [
        0.016104701906442642,
        0.016104701906442642
      ],
      "type": "VEC2"
    },
    {
      "bufferView": 0,
      "byteOffset": 192480,
      "componentType": 5125,
      "count": 3840,
      "type": "SCALAR"
    },
    {
      "bufferView": 2,
      "byteOffset": 299088,
      "componentType": 5126,
      "count": 390,
      "max": [
        0.4476085305213928,
        0.9155843257904053,
        0.7552928328514099
      ],
      "min": [
        0.17080941796302795,
        0.6402177214622498,
        0.5508846640586853
      ],
      "type": "VEC3"
    },
    {
      "bufferView": 2,
      "byteOffset": 303768,
      "componentType": 5126,
      "count": 390,
      "max": [
        1.0,
        0.9749295711517334,
        0.9993190765380859
      ],
      "min": [
        -1.0,
        -0.9749295711517334,
        -0.9993191957473755
      ],
      "type": "VEC3"
    },
    {
      "bufferView": 1,
      "byteOffset": 99696,
      "componentType": 5126,
      "count": 390,
      "max": [
        1.0,
        1.0
      ],
      "min": [
        -2.220446049250313e-16,
        2.220446049250313e-16
      ],
      "type": "VEC2"
    },
    {
      "bufferView": 0,
      "byteOffset": 207840,
      "componentType": 5125,
      "count": 2016,
      "type": "SCALAR"
    },
    {
      "bufferView": 2,
      "byteOffset": 308448,
      "componentType": 5126,
      "count": 390,
      "max": [
        0.4576082229614258,
        0.9253334999084473,
        0.765285849571228
      ],
      "min": [
        0.16084328293800354,
        0.6307297945022583,
        0.5411074161529541
      ],
      "type": "VEC3"
    },
    {
      "bufferView": 2,
      "byteOffset": 313128,
      "componentType": 5126,
      "count": 390,
      "max": [
        1.0,
        0.9749295711517334,
        0.998940646648407
      ],
      "min": [
        -1.0,
        -0.9749295711517334,
        -0.9989401698112488
      ],
      "type": "VEC3"
    },
    {
      "bufferView": 1,
      "byteOffset": 102816,
      "componentType": 5126,
      "count": 390,
      "max": [
        1.0,
        1.0
      ],
      "min": [
        -2.220446049250313e-16,
        2.220446049250313e-16
      ],
      "type": "VEC2"
    },
    {
      "bufferView": 0,
      "byteOffset": 215904,
      "componentType": 5125,
      "count": 2016,
      "type": "SCALAR"
    }
  ],
  "asset": {
    "extras": {
      "author": "IgorBaeyens (https://sketchfab.com/IgorBaeyens)",
      "license": "CC-BY-4.0 (http://creativecommons.org/licenses/by/4.0/)",
      "source": "https://sketchfab.com/3d-models/botan-ssrb-c58392d261b44ac9b97341a50f3211f1",
      "title": "botan SSRB"
    },
    "generator": "Sketchfab-12.65.0",
    "version": "2.0"
  },
  "bufferViews": [
    {
      "buffer": 0,
      "byteLength": 223968,
      "name": "floatBufferViews",
      "target": 34963
    },
    {
      "buffer": 0,
      "byteLength": 105936,
      "byteOffset": 223968,
      "byteStride": 8,
      "name": "floatBufferViews",
      "target": 34962
    },
    {
      "buffer": 0,
      "byteLength": 317808,
      "byteOffset": 329904,
      "byteStride": 12,
      "name": "floatBufferViews",
      "target": 34962
    }
  ],
  "buffers": [
    {
      "byteLength": 647712,
      "uri": "scene.bin"
    }
  ],
  "extensionsUsed": [
    "KHR_materials_unlit"
  ],
  "images": [
    {
      "uri": "textures/body_baseColor.png"
    }
  ],
  "materials": [
    {
      "doubleSided": true,
      "extensions": {
        "KHR_materials_unlit": {}
      },
      "name": "body",
      "pbrMetallicRoughness": {
        "baseColorTexture": {
          "index": 0
        },
        "metallicFactor": 0.0
      }
    },
    {
      "extensions": {
        "KHR_materials_unlit": {}
      },
      "name": "outline",
      "pbrMetallicRoughness": {
        "baseColorFactor": [
          0.0,
          0.0,
          0.0,
          1.0
        ],
        "metallicFactor": 0.0
      }
    },
    {
      "doubleSided": true,
      "extensions": {
        "KHR_materials_unlit": {}
      },
      "name": "eyes",
      "pbrMetallicRoughness": {
        "baseColorFactor": [
          0.0,
          0.0,
          0.0,
          1.0
        ],
        "metallicFactor": 0.0
      }
    },
    {
      "doubleSided": true,
      "extensions": {
        "KHR_materials_unlit": {}
      },
      "name": "rope",
      "pbrMetallicRoughness": {
        "baseColorFactor": [
          0.7926760664667007,
          0.6100960274700982,
          0.29921113612706746,
          1.0
        ],
        "metallicFactor": 0.0
      }
    },
    {
      "doubleSided": true,
      "extensions": {
        "KHR_materials_unlit": {}
      },
      "name": "iron",
      "pbrMetallicRoughness": {
        "baseColorFactor": [
          0.3636653735842167,
          0.3636653735842167,
          0.3636653735842167,
          1.0
        ],
        "metallicFactor": 0.0
      }
    }
  ],
  "meshes": [
    {
      "name": "body_body_0",
      "primitives": [
        {
          "attributes": {
            "NORMAL": 1,
            "POSITION": 0,
            "TEXCOORD_0": 2
          },
          "indices": 3,
          "material": 0,
          "mode": 4
        }
      ]
    },
    {
      "name": "body_outline_0",
      "primitives": [
        {
          "attributes": {
            "NORMAL": 5,
            "POSITION": 4,
            "TEXCOORD_0": 6
          },
          "indices": 7,
          "material": 1,
          "mode": 4
        }
      ]
    },
    {
      "name": "eyes_eyes_0",
      "primitives": [
        {
          "attributes": {
            "NORMAL": 9,
            "POSITION": 8,
            "TEXCOORD_0": 10
          },
          "indices": 11,
          "material": 2,
          "mode": 4
        }
      ]
    },
    {
      "name": "fuse_rope_0",
      "primitives": [
        {
          "attributes": {
            "NORMAL": 13,
            "POSITION": 12,
            "TEXCOORD_0": 14
          },
          "indices": 15,
          "material": 3,
          "mode": 4
        }
      ]
    },
    {
      "name": "fuse_outline_0",
      "primitives": [
        {
          "attributes": {
            "NORMAL": 17,
            "POSITION": 16,
            "TEXCOORD_0": 18
          },
          "indices": 19,
          "material": 1,
          "mode": 4
        }
      ]
    },
    {
      "name": "iron_iron_0",
      "primitives": [
        {
          "attributes": {
            "NORMAL": 21,
            "POSITION": 20,
            "TEXCOORD_0": 22
          },
          "indices": 23,
          "material": 4,
          "mode": 4
        }
      ]
    },
    {
      "name": "iron_outline_0",
      "primitives": [
        {
          "attributes": {
            "NORMAL": 25,
            "POSITION": 24,
            "TEXCOORD_0": 26
          },
          "indices": 27,
          "material": 1,
          "mode": 4
        }
      ]
    },
    {
      "name": "rings_iron_0",
      "primitives": [
        {
          "attributes": {
            "NORMAL": 29,
            "POSITION": 28,
            "TEXCOORD_0": 30
          },
          "indices": 31,
          "material": 4,
          "mode": 4
        }
      ]
    },
    {
      "name": "rings_outline_0",
      "primitives": [
        {
          "attributes": {
            "NORMAL": 33,
            "POSITION": 32,
            "TEXCOORD_0": 34
          },
          "indices": 35,
          "material": 1,
          "mode": 4
        }
      ]
    }
  ],
  "nodes": [
    {
      "children": [
        1
      ],
      "matrix": [
        1.0,
        0.0,
        0.0,
        0.0,
        0.0,
        2.220446049250313e-16,
        -1.0,
        0.0,
        0.0,
        1.0,
        2.220446049250313e-16,
        0.0,
        0.0,
        0.0,
        0.0,
        1.0
      ],
      "name": "Sketchfab_model"
    },
    {
      "children": [
        2
      ],
      "matrix": [
        0.009999999776482582,
        0.0,
        0.0,
        0.0,
        0.0,
        0.0,
        0.009999999776482582,
        0.0,
        0.0,
        -0.009999999776482582,
        0.0,
        0.0,
        0.0,
        0.0,
        0.0,
        1.0
      ],
      "name": "09bb723839ed4a7ea147d77b937ea0dc.fbx"
    },
    {
      "children": [
        3,
        6,
        8,
        11,
        14
      ],
      "name": "RootNode"
    },
    {
      "children": [
        4,
        5
      ],
      "matrix": [
        100.0,
        0.0,
        0.0,
        0.0,
        0.0,
        -1.629206793918314e-05,
        -99.99999999999868,
        0.0,
        0.0,
        99.99999999999868,
        -1.629206793918314e-05,
        0.0,
        0.0,
        0.0,
        0.0,
        1.0
      ],
      "name": "body"
    },
    {
      "mesh": 0,
      "name": "body_body_0"
    },
    {
      "mesh": 1,
      "name": "body_outline_0"
    },
    {
      "children": [
        7
      ],
      "matrix": [
        100.0,
        0.0,
        0.0,
        0.0,
        0.0,
        -1.629206793918314e-05,
        -99.99999999999868,
        0.0,
        0.0,
        99.99999999999868,
        -1.629206793918314e-05,
        0.0,
        0.0,
        0.0,
        0.0,
        1.0
      ],
      "name": "eyes"
    },
    {
      "mesh": 2,
      "name": "eyes_eyes_0"
    },
    {
      "children": [
        9,
        10
      ],
      "matrix": [
        100.0,
        0.0,
        0.0,
        0.0,
        0.0,
        -1.629206793918314e-05,
        -99.99999999999868,
        0.0,
        0.0,
        99.99999999999868,
        -1.629206793918314e-05,
        0.0,
        0.0,
        0.0,
        0.0,
        1.0
      ],
      "name": "fuse"
    },
    {
      "mesh": 3,
      "name": "fuse_rope_0"
    },
    {
      "mesh": 4,
      "name": "fuse_outline_0"
    },
    {
      "children": [
        12,
        13
      ],
      "matrix": [
        100.0,
        0.0,
        0.0,
        0.0,
        0.0,
        -1.629206793918314e-05,
        -99.99999999999868,
        0.0,
        0.0,
        99.99999999999868,
        -1.629206793918314e-05,
        0.0,
        0.0,
        0.0,
        0.0,
        1.0
      ],
      "name": "iron"
    },
    {
      "mesh": 5,
      "name": "iron_iron_0"
    },
    {
      "mesh": 6,
      "name": "iron_outline_0"
    },
    {
      "children": [
        15,
        16
      ],
      "matrix": [
        100.0,
        0.0,
        0.0,
        0.0,
        0.0,
        -1.629206793918314e-05,
        -99.99999999999868,
        0.0,
        0.0,
        99.99999999999868,
        -1.629206793918314e-05,
        0.0,
        0.0,
        0.0,
        0.0,
        1.0
      ],
      "name": "rings"
    },
    {
      "mesh": 7,
      "name": "rings_iron_0"
    },
    {
      "mesh": 8,
      "name": "rings_outline_0"
    }
  ],
  "samplers": [
    {
      "magFilter": 9729,
      "minFilter": 9987,
      "wrapS": 10497,
      "wrapT": 10497
    }
  ],
  "scene": 0,
  "scenes": [
    {
      "name": "Sketchfab_Scene",
      "nodes": [
        0
      ]
    }
  ],
  "textures": [
    {
      "sampler": 0,
      "source": 0
    }
  ]
}
