{
  "accessors": [
    {
      "bufferView": 2,
      "componentType": 5126,
      "count": 26444,
      "max": [
        2.4312849044799805,
        0.021837448701262474,
        -0.03630414605140686
      ],
      "min": [
        -5.684027671813965,
        -0.004283382557332516,
        -6.478531360626221
      ],
      "type": "VEC3"
    },
    {
      "bufferView": 2,
      "byteOffset": 317328,
      "componentType": 5126,
      "count": 26444,
      "max": [
        0.9999924898147583,
        1.0,
        1.0
      ],
      "min": [
        -0.9999985098838806,
        -4.853136488236487e-05,
        -1.0
      ],
      "type": "VEC3"
    },
    {
      "bufferView": 1,
      "componentType": 5126,
      "count": 26444,
      "max": [
        1.0,
        1.0
      ],
      "min": [
        0.0,
        0.0
      ],
      "type": "VEC2"
    },
    {
      "bufferView": 0,
      "componentType": 5125,
      "count": 43212,
      "type": "SCALAR"
    },
    {
      "bufferView": 2,
      "byteOffset": 634656,
      "componentType": 5126,
      "count": 2208,
      "max": [
        2.354440927505493,
        0.017110444605350494,
        -0.20267188549041748
      ],
      "min": [
        -5.614406585693359,
        0.017110412940382957,
        -6.409384727478027
      ],
      "type": "VEC3"
    },
    {
      "bufferView": 2,
      "byteOffset": 661152,
      "componentType": 5126,
      "count": 2208,
      "max": [
        2.4393770559072436e-07,
        1.0,
        2.11496029578484e-07
      ],
      "min": [
        -8.126703932020973e-08,
        1.0,
        -2.515799337743374e-07
      ],
      "type": "VEC3"
    },
    {
      "bufferView": 1,
      "byteOffset": 211552,
      "componentType": 5126,
      "count": 2208,
      "max": [
        0.8695580959320068,
        0.6840898394584656
      ],
      "min": [
        0.13044163584709167,
        0.31591036915779114
      ],
      "type": "VEC2"
    },
    {
      "bufferView": 0,
      "byteOffset": 172848,
      "componentType": 5125,
      "count": 6210,
      "type": "SCALAR"
    }
  ],
  "asset": {
    "extras": {
      "author": "BlackCube (https://sketchfab.com/blackcube4)",
      "license": "CC-BY-4.0 (http://creativecommons.org/licenses/by/4.0/)",
      "source": "https://sketchfab.com/3d-models/led-strip-982dc1e68e874d36a0dc09745d184bc6",
      "title": "Led strip"
    },
    "generator": "Sketchfab-12.67.0",
    "version": "2.0"
  },
  "bufferViews": [
    {
      "buffer": 0,
      "byteLength": 197688,
      "name": "floatBufferViews",
      "target": 34963
    },
    {
      "buffer": 0,
      "byteLength": 229216,
      "byteOffset": 197688,
      "byteStride": 8,
      "name": "floatBufferViews",
      "target": 34962
    },
    {
      "buffer": 0,
      "byteLength": 687648,
      "byteOffset": 426904,
      "byteStride": 12,
      "name": "floatBufferViews",
      "target": 34962
    }
  ],
  "buffers": [
    {
      "byteLength": 1114552,
      "uri": "scene.bin"
    }
  ],
  "images": [
    {
      "uri": "textures/LED_Stripe_baseColor.jpeg"
    }
  ],
  "materials": [
    {
      "doubleSided": true,
      "name": "LED_Stripe",
      "pbrMetallicRoughness": {
        "baseColorTexture": {
          "index": 0
        },
        "metallicFactor": 0.0,
        "roughnessFactor": 0.808333
      }
    },
    {
      "doubleSided": true,
      "emissiveFactor": [
        0.0,
        1.0,
        1.0
      ],
      "name": "LED_Light",
      "pbrMetallicRoughness": {
        "baseColorFactor": [
          0.0,
          0.0,
          0.0,
          1.0
        ]
      }
    }
  ],
  "meshes": [
    {
      "name": "Object_0",
      "primitives": [
        {
          "attributes": {
            "NORMAL": 1,
            "POSITION": 0,
            "TEXCOORD_0": 2
          },
          "indices": 3,
          "material": 0,
          "mode": 4
        }
      ]
    },
    {
      "name": "Object_1",
      "primitives": [
        {
          "attributes": {
            "NORMAL": 5,
            "POSITION": 4,
            "TEXCOORD_0": 6
          },
          "indices": 7,
          "material": 1,
          "mode": 4
        }
      ]
    }
  ],
  "nodes": [
    {
      "children": [
        1
      ],
      "matrix": [
        1.0,
        0.0,
        0.0,
        0.0,
        0.0,
        2.220446049250313e-16,
        -1.0,
        0.0,
        0.0,
        1.0,
        2.220446049250313e-16,
        0.0,
        0.0,
        0.0,
        0.0,
        1.0
      ],
      "name": "Sketchfab_model"
    },
    {
      "children": [
        2
      ],
      "name": "root"
    },
    {
      "children": [
        3
      ],
      "matrix": [
        1.0,
        0.0,
        0.0,
        0.0,
        0.0,
        2.220446049250313e-16,
        1.0,
        0.0,
        0.0,
        -1.0,
        2.220446049250313e-16,
        0.0,
        0.0,
        0.0,
        0.0,
        1.0
      ],
      "name": "GLTF_SceneRootNode"
    },
    {
      "children": [
        4,
        5
      ],
      "matrix": [
        1.0,
        0.0,
        0.0,
        0.0,
        0.0,
        1.0,
        0.0,
        0.0,
        0.0,
        0.0,
        1.0,
        0.0,
        1.6395103931427002,
        0.0,
        3.6893439292907715,
        1.0
      ],
      "name": "LED Streifen_3"
    },
    {
      "mesh": 0,
      "name": "Object_4"
    },
    {
      "mesh": 1,
      "name": "Object_5"
    }
  ],
  "samplers": [
    {
      "magFilter": 9729,
      "minFilter": 9987,
      "wrapS": 10497,
      "wrapT": 10497
    }
  ],
  "scene": 0,
  "scenes": [
    {
      "name": "Sketchfab_Scene",
      "nodes": [
        0
      ]
    }
  ],
  "textures": [
    {
      "sampler": 0,
      "source": 0
    }
  ]
}
